<mxfile host="Electron" modified="2025-03-26T07:51:02.469Z" agent="Mozilla/5.0 (Windows NT 10.0; Win64; x64) AppleWebKit/537.36 (KHTML, like Gecko) draw.io/24.6.4 Chrome/124.0.6367.207 Electron/30.0.6 Safari/537.36" etag="OPA78XHPAWtQLtaDP2xl" version="24.6.4" type="device">
  <diagram name="Page-1" id="yYE3nk2Yi03KOiTFjPrv">
    <mxGraphModel dx="2087" dy="1384" grid="0" gridSize="10" guides="0" tooltips="1" connect="1" arrows="1" fold="1" page="0" pageScale="1" pageWidth="850" pageHeight="1100" math="0" shadow="0">
      <root>
        <mxCell id="0" />
        <mxCell id="1" parent="0" />
        <mxCell id="DXTYkHTDWW93YnKTJZQN-13" style="rounded=0;orthogonalLoop=1;jettySize=auto;html=1;exitX=0.5;exitY=1;exitDx=0;exitDy=0;" parent="1" source="DXTYkHTDWW93YnKTJZQN-34" target="DXTYkHTDWW93YnKTJZQN-8" edge="1">
          <mxGeometry relative="1" as="geometry" />
        </mxCell>
        <mxCell id="DXTYkHTDWW93YnKTJZQN-5" value="Prepre at base site" style="shape=rect;html=1;rounded=1;whiteSpace=wrap;align=center;" parent="1" vertex="1">
          <mxGeometry x="-3" y="131" width="138" height="53" as="geometry" />
        </mxCell>
        <mxCell id="DXTYkHTDWW93YnKTJZQN-6" value="Monitor health" style="shape=rect;html=1;rounded=1;whiteSpace=wrap;align=center;" parent="1" vertex="1">
          <mxGeometry x="586" y="149" width="112" height="176" as="geometry" />
        </mxCell>
        <mxCell id="DXTYkHTDWW93YnKTJZQN-14" style="rounded=0;orthogonalLoop=1;jettySize=auto;html=1;exitX=0.5;exitY=1;exitDx=0;exitDy=0;entryX=0.5;entryY=0;entryDx=0;entryDy=0;" parent="1" source="DXTYkHTDWW93YnKTJZQN-24" target="DXTYkHTDWW93YnKTJZQN-11" edge="1">
          <mxGeometry relative="1" as="geometry" />
        </mxCell>
        <mxCell id="DXTYkHTDWW93YnKTJZQN-8" value="transit: to job site" style="shape=rect;html=1;rounded=1;whiteSpace=wrap;align=center;" parent="1" vertex="1">
          <mxGeometry x="-3" y="268" width="138" height="53" as="geometry" />
        </mxCell>
        <mxCell id="DXTYkHTDWW93YnKTJZQN-29" style="edgeStyle=none;shape=connector;rounded=0;orthogonalLoop=1;jettySize=auto;html=1;exitX=1;exitY=0.5;exitDx=0;exitDy=0;entryX=0;entryY=0.5;entryDx=0;entryDy=0;strokeColor=default;align=center;verticalAlign=middle;fontFamily=Helvetica;fontSize=11;fontColor=default;labelBackgroundColor=default;endArrow=classic;" parent="1" source="DXTYkHTDWW93YnKTJZQN-9" target="DXTYkHTDWW93YnKTJZQN-12" edge="1">
          <mxGeometry relative="1" as="geometry" />
        </mxCell>
        <mxCell id="DXTYkHTDWW93YnKTJZQN-9" value="transit: to dump site" style="shape=rect;html=1;rounded=1;whiteSpace=wrap;align=center;" parent="1" vertex="1">
          <mxGeometry x="234" y="478" width="138" height="53" as="geometry" />
        </mxCell>
        <mxCell id="DXTYkHTDWW93YnKTJZQN-33" style="edgeStyle=orthogonalEdgeStyle;shape=connector;rounded=0;orthogonalLoop=1;jettySize=auto;html=1;exitX=0.5;exitY=0;exitDx=0;exitDy=0;entryX=1;entryY=0.5;entryDx=0;entryDy=0;strokeColor=default;align=center;verticalAlign=middle;fontFamily=Helvetica;fontSize=11;fontColor=default;labelBackgroundColor=default;endArrow=classic;" parent="1" source="DXTYkHTDWW93YnKTJZQN-10" target="DXTYkHTDWW93YnKTJZQN-5" edge="1">
          <mxGeometry relative="1" as="geometry" />
        </mxCell>
        <mxCell id="DXTYkHTDWW93YnKTJZQN-10" value="transit: to base" style="shape=rect;html=1;rounded=1;whiteSpace=wrap;align=center;" parent="1" vertex="1">
          <mxGeometry x="423" y="242" width="138" height="53" as="geometry" />
        </mxCell>
        <mxCell id="DXTYkHTDWW93YnKTJZQN-26" style="edgeStyle=none;shape=connector;rounded=0;orthogonalLoop=1;jettySize=auto;html=1;exitX=1;exitY=0.5;exitDx=0;exitDy=0;entryX=0;entryY=0.5;entryDx=0;entryDy=0;strokeColor=default;align=center;verticalAlign=middle;fontFamily=Helvetica;fontSize=11;fontColor=default;labelBackgroundColor=default;endArrow=classic;" parent="1" source="DXTYkHTDWW93YnKTJZQN-11" target="DXTYkHTDWW93YnKTJZQN-16" edge="1">
          <mxGeometry relative="1" as="geometry" />
        </mxCell>
        <mxCell id="DXTYkHTDWW93YnKTJZQN-11" value="Operate at job site" style="shape=rect;html=1;rounded=1;whiteSpace=wrap;align=center;" parent="1" vertex="1">
          <mxGeometry x="-3" y="478" width="138" height="53" as="geometry" />
        </mxCell>
        <mxCell id="DXTYkHTDWW93YnKTJZQN-31" style="edgeStyle=none;shape=connector;rounded=0;orthogonalLoop=1;jettySize=auto;html=1;exitX=0.5;exitY=0;exitDx=0;exitDy=0;entryX=0.5;entryY=1;entryDx=0;entryDy=0;strokeColor=default;align=center;verticalAlign=middle;fontFamily=Helvetica;fontSize=11;fontColor=default;labelBackgroundColor=default;endArrow=classic;" parent="1" source="DXTYkHTDWW93YnKTJZQN-12" target="DXTYkHTDWW93YnKTJZQN-30" edge="1">
          <mxGeometry relative="1" as="geometry" />
        </mxCell>
        <mxCell id="DXTYkHTDWW93YnKTJZQN-12" value="Operate at dump site" style="shape=rect;html=1;rounded=1;whiteSpace=wrap;align=center;" parent="1" vertex="1">
          <mxGeometry x="423" y="478" width="138" height="53" as="geometry" />
        </mxCell>
        <mxCell id="DXTYkHTDWW93YnKTJZQN-27" style="edgeStyle=orthogonalEdgeStyle;shape=connector;rounded=0;orthogonalLoop=1;jettySize=auto;html=1;exitX=0.5;exitY=0;exitDx=0;exitDy=0;entryX=1;entryY=0.5;entryDx=0;entryDy=0;strokeColor=default;align=center;verticalAlign=middle;fontFamily=Helvetica;fontSize=11;fontColor=default;labelBackgroundColor=default;endArrow=classic;" parent="1" source="DXTYkHTDWW93YnKTJZQN-16" target="DXTYkHTDWW93YnKTJZQN-24" edge="1">
          <mxGeometry relative="1" as="geometry" />
        </mxCell>
        <mxCell id="DXTYkHTDWW93YnKTJZQN-28" value="No" style="edgeLabel;html=1;align=center;verticalAlign=middle;resizable=0;points=[];fontFamily=Helvetica;fontSize=11;fontColor=default;labelBackgroundColor=default;" parent="DXTYkHTDWW93YnKTJZQN-27" vertex="1" connectable="0">
          <mxGeometry x="-0.289" relative="1" as="geometry">
            <mxPoint as="offset" />
          </mxGeometry>
        </mxCell>
        <mxCell id="DXTYkHTDWW93YnKTJZQN-16" value="" style="shape=rhombus;html=1;verticalLabelPosition=bottom;verticalAlignment=top;fontFamily=Helvetica;fontSize=11;fontColor=default;labelBackgroundColor=default;" parent="1" vertex="1">
          <mxGeometry x="159" y="484.5" width="40" height="40" as="geometry" />
        </mxCell>
        <mxCell id="DXTYkHTDWW93YnKTJZQN-18" value="Yes" style="edgeStyle=elbowEdgeStyle;html=1;elbow=vertical;verticalAlign=bottom;endArrow=open;rounded=0;labelBackgroundColor=none;endSize=12;strokeColor=default;align=center;fontFamily=Helvetica;fontSize=11;fontColor=default;entryX=0;entryY=0.5;entryDx=0;entryDy=0;" parent="1" source="DXTYkHTDWW93YnKTJZQN-16" target="DXTYkHTDWW93YnKTJZQN-9" edge="1">
          <mxGeometry relative="1" as="geometry">
            <mxPoint x="243" y="477" as="targetPoint" />
            <mxPoint x="115" y="477" as="sourcePoint" />
          </mxGeometry>
        </mxCell>
        <mxCell id="DXTYkHTDWW93YnKTJZQN-25" value="" style="rounded=0;orthogonalLoop=1;jettySize=auto;html=1;exitX=0.5;exitY=1;exitDx=0;exitDy=0;entryX=0.5;entryY=0;entryDx=0;entryDy=0;" parent="1" source="DXTYkHTDWW93YnKTJZQN-8" target="DXTYkHTDWW93YnKTJZQN-24" edge="1">
          <mxGeometry relative="1" as="geometry">
            <mxPoint x="66" y="298" as="sourcePoint" />
            <mxPoint x="20" y="452" as="targetPoint" />
          </mxGeometry>
        </mxCell>
        <mxCell id="DXTYkHTDWW93YnKTJZQN-24" value="" style="shape=rhombus;html=1;verticalLabelPosition=bottom;verticalAlignment=top;fontFamily=Helvetica;fontSize=11;fontColor=default;labelBackgroundColor=default;" parent="1" vertex="1">
          <mxGeometry x="46" y="373" width="40" height="40" as="geometry" />
        </mxCell>
        <mxCell id="DXTYkHTDWW93YnKTJZQN-36" style="edgeStyle=orthogonalEdgeStyle;shape=connector;rounded=0;orthogonalLoop=1;jettySize=auto;html=1;exitX=0;exitY=0.5;exitDx=0;exitDy=0;entryX=1;entryY=0.5;entryDx=0;entryDy=0;strokeColor=default;align=center;verticalAlign=middle;fontFamily=Helvetica;fontSize=11;fontColor=default;labelBackgroundColor=default;endArrow=classic;" parent="1" source="DXTYkHTDWW93YnKTJZQN-30" target="DXTYkHTDWW93YnKTJZQN-34" edge="1">
          <mxGeometry relative="1" as="geometry" />
        </mxCell>
        <mxCell id="DXTYkHTDWW93YnKTJZQN-30" value="" style="shape=rhombus;html=1;verticalLabelPosition=bottom;verticalAlignment=top;fontFamily=Helvetica;fontSize=11;fontColor=default;labelBackgroundColor=default;" parent="1" vertex="1">
          <mxGeometry x="472" y="365" width="40" height="40" as="geometry" />
        </mxCell>
        <mxCell id="DXTYkHTDWW93YnKTJZQN-32" style="edgeStyle=none;shape=connector;rounded=0;orthogonalLoop=1;jettySize=auto;html=1;exitX=0.5;exitY=0;exitDx=0;exitDy=0;entryX=0.5;entryY=1;entryDx=0;entryDy=0;strokeColor=default;align=center;verticalAlign=middle;fontFamily=Helvetica;fontSize=11;fontColor=default;labelBackgroundColor=default;endArrow=classic;" parent="1" source="DXTYkHTDWW93YnKTJZQN-30" target="DXTYkHTDWW93YnKTJZQN-10" edge="1">
          <mxGeometry relative="1" as="geometry" />
        </mxCell>
        <mxCell id="DXTYkHTDWW93YnKTJZQN-35" value="" style="rounded=0;orthogonalLoop=1;jettySize=auto;html=1;exitX=0.5;exitY=1;exitDx=0;exitDy=0;" parent="1" source="DXTYkHTDWW93YnKTJZQN-5" target="DXTYkHTDWW93YnKTJZQN-34" edge="1">
          <mxGeometry relative="1" as="geometry">
            <mxPoint x="66" y="184" as="sourcePoint" />
            <mxPoint x="65" y="268" as="targetPoint" />
          </mxGeometry>
        </mxCell>
        <mxCell id="DXTYkHTDWW93YnKTJZQN-34" value="" style="shape=rhombus;html=1;verticalLabelPosition=bottom;verticalAlignment=top;fontFamily=Helvetica;fontSize=11;fontColor=default;labelBackgroundColor=default;" parent="1" vertex="1">
          <mxGeometry x="46" y="205" width="40" height="40" as="geometry" />
        </mxCell>
        <mxCell id="DXTYkHTDWW93YnKTJZQN-37" value="Event: Rocket Landing Alert" style="html=1;shape=mxgraph.sysml.accEvent;strokeWidth=2;whiteSpace=wrap;align=center;fontFamily=Helvetica;fontSize=11;fontColor=default;labelBackgroundColor=default;" parent="1" vertex="1">
          <mxGeometry x="597" y="491" width="100" height="60" as="geometry" />
        </mxCell>
        <mxCell id="DXTYkHTDWW93YnKTJZQN-43" value="Operate in Emergency" style="shape=rect;html=1;rounded=1;whiteSpace=wrap;align=center;" parent="1" vertex="1">
          <mxGeometry x="939" y="507" width="138" height="53" as="geometry" />
        </mxCell>
        <mxCell id="DXTYkHTDWW93YnKTJZQN-47" value="Support Robot" style="shape=rect;html=1;rounded=1;whiteSpace=wrap;align=center;" parent="1" vertex="1">
          <mxGeometry x="938" y="279" width="138" height="53" as="geometry" />
        </mxCell>
        <mxCell id="DXTYkHTDWW93YnKTJZQN-50" value="Transit to recharge" style="shape=rect;html=1;rounded=1;whiteSpace=wrap;align=center;" parent="1" vertex="1">
          <mxGeometry x="940" y="163" width="138" height="53" as="geometry" />
        </mxCell>
        <mxCell id="DXTYkHTDWW93YnKTJZQN-51" value="" style="rounded=0;whiteSpace=wrap;html=1;fontFamily=Helvetica;fontSize=11;fontColor=default;labelBackgroundColor=default;" parent="1" vertex="1">
          <mxGeometry x="925" y="179" width="15" height="17" as="geometry" />
        </mxCell>
        <mxCell id="DXTYkHTDWW93YnKTJZQN-53" value="" style="rounded=0;whiteSpace=wrap;html=1;fontFamily=Helvetica;fontSize=11;fontColor=default;labelBackgroundColor=default;" parent="1" vertex="1">
          <mxGeometry x="693" y="166" width="15" height="17" as="geometry" />
        </mxCell>
        <mxCell id="DXTYkHTDWW93YnKTJZQN-55" value="" style="shape=mxgraph.lean_mapping.electronic_info_flow_edge;html=1;edgeStyle=none;align=center;verticalAlign=bottom;exitX=0;exitY=0.5;fillColor=#ffffff;rounded=0;strokeColor=default;fontFamily=Helvetica;fontSize=11;fontColor=default;labelBackgroundColor=default;endArrow=classic;exitDx=0;exitDy=0;entryX=1;entryY=0.5;entryDx=0;entryDy=0;" parent="1" source="DXTYkHTDWW93YnKTJZQN-53" target="DXTYkHTDWW93YnKTJZQN-51" edge="1">
          <mxGeometry x="1" relative="1" as="geometry">
            <mxPoint x="936" y="199" as="targetPoint" />
            <mxPoint x="723" y="201" as="sourcePoint" />
          </mxGeometry>
        </mxCell>
        <mxCell id="DXTYkHTDWW93YnKTJZQN-63" value="RechargeNeeded" style="edgeLabel;html=1;align=center;verticalAlign=middle;resizable=0;points=[];fontFamily=Helvetica;fontSize=11;fontColor=default;labelBackgroundColor=default;" parent="DXTYkHTDWW93YnKTJZQN-55" vertex="1" connectable="0">
          <mxGeometry x="0.6194" y="-3" relative="1" as="geometry">
            <mxPoint x="1" y="-23" as="offset" />
          </mxGeometry>
        </mxCell>
        <mxCell id="DXTYkHTDWW93YnKTJZQN-65" value="RechargeNeeded" style="edgeLabel;html=1;align=center;verticalAlign=middle;resizable=0;points=[];fontFamily=Helvetica;fontSize=11;fontColor=default;labelBackgroundColor=default;" parent="DXTYkHTDWW93YnKTJZQN-55" vertex="1" connectable="0">
          <mxGeometry x="-0.5081" y="2" relative="1" as="geometry">
            <mxPoint x="2" y="-13" as="offset" />
          </mxGeometry>
        </mxCell>
        <mxCell id="DXTYkHTDWW93YnKTJZQN-66" value="" style="rounded=0;whiteSpace=wrap;html=1;fontFamily=Helvetica;fontSize=11;fontColor=default;labelBackgroundColor=default;" parent="1" vertex="1">
          <mxGeometry x="923" y="298" width="15" height="17" as="geometry" />
        </mxCell>
        <mxCell id="DXTYkHTDWW93YnKTJZQN-67" value="" style="rounded=0;whiteSpace=wrap;html=1;fontFamily=Helvetica;fontSize=11;fontColor=default;labelBackgroundColor=default;" parent="1" vertex="1">
          <mxGeometry x="691" y="285" width="15" height="17" as="geometry" />
        </mxCell>
        <mxCell id="DXTYkHTDWW93YnKTJZQN-68" value="" style="shape=mxgraph.lean_mapping.electronic_info_flow_edge;html=1;edgeStyle=none;align=center;verticalAlign=bottom;exitX=0;exitY=0.5;fillColor=#ffffff;rounded=0;strokeColor=default;fontFamily=Helvetica;fontSize=11;fontColor=default;labelBackgroundColor=default;endArrow=classic;exitDx=0;exitDy=0;entryX=1;entryY=0.5;entryDx=0;entryDy=0;" parent="1" source="DXTYkHTDWW93YnKTJZQN-67" target="DXTYkHTDWW93YnKTJZQN-66" edge="1">
          <mxGeometry x="1" relative="1" as="geometry">
            <mxPoint x="934" y="318" as="targetPoint" />
            <mxPoint x="721" y="320" as="sourcePoint" />
          </mxGeometry>
        </mxCell>
        <mxCell id="DXTYkHTDWW93YnKTJZQN-69" value="MaintenaceNeeded" style="edgeLabel;html=1;align=center;verticalAlign=middle;resizable=0;points=[];fontFamily=Helvetica;fontSize=11;fontColor=default;labelBackgroundColor=default;" parent="DXTYkHTDWW93YnKTJZQN-68" vertex="1" connectable="0">
          <mxGeometry x="0.6194" y="-3" relative="1" as="geometry">
            <mxPoint x="1" y="-23" as="offset" />
          </mxGeometry>
        </mxCell>
        <mxCell id="DXTYkHTDWW93YnKTJZQN-70" value="MaintenaceNeeded" style="edgeLabel;html=1;align=center;verticalAlign=middle;resizable=0;points=[];fontFamily=Helvetica;fontSize=11;fontColor=default;labelBackgroundColor=default;" parent="DXTYkHTDWW93YnKTJZQN-68" vertex="1" connectable="0">
          <mxGeometry x="-0.5081" y="2" relative="1" as="geometry">
            <mxPoint x="2" y="-13" as="offset" />
          </mxGeometry>
        </mxCell>
        <mxCell id="DXTYkHTDWW93YnKTJZQN-71" value="" style="rounded=0;whiteSpace=wrap;html=1;fontFamily=Helvetica;fontSize=11;fontColor=default;labelBackgroundColor=default;" parent="1" vertex="1">
          <mxGeometry x="926" y="528" width="15" height="17" as="geometry" />
        </mxCell>
        <mxCell id="DXTYkHTDWW93YnKTJZQN-72" value="" style="rounded=0;whiteSpace=wrap;html=1;fontFamily=Helvetica;fontSize=11;fontColor=default;labelBackgroundColor=default;" parent="1" vertex="1">
          <mxGeometry x="694" y="515" width="15" height="17" as="geometry" />
        </mxCell>
        <mxCell id="DXTYkHTDWW93YnKTJZQN-73" value="" style="shape=mxgraph.lean_mapping.electronic_info_flow_edge;html=1;edgeStyle=none;align=center;verticalAlign=bottom;exitX=0;exitY=0.5;fillColor=#ffffff;rounded=0;strokeColor=default;fontFamily=Helvetica;fontSize=11;fontColor=default;labelBackgroundColor=default;endArrow=classic;exitDx=0;exitDy=0;entryX=1;entryY=0.5;entryDx=0;entryDy=0;" parent="1" source="DXTYkHTDWW93YnKTJZQN-72" target="DXTYkHTDWW93YnKTJZQN-71" edge="1">
          <mxGeometry x="1" relative="1" as="geometry">
            <mxPoint x="937" y="548" as="targetPoint" />
            <mxPoint x="724" y="550" as="sourcePoint" />
          </mxGeometry>
        </mxCell>
        <mxCell id="DXTYkHTDWW93YnKTJZQN-74" value="RocketApproach" style="edgeLabel;html=1;align=center;verticalAlign=middle;resizable=0;points=[];fontFamily=Helvetica;fontSize=11;fontColor=default;labelBackgroundColor=default;" parent="DXTYkHTDWW93YnKTJZQN-73" vertex="1" connectable="0">
          <mxGeometry x="0.6194" y="-3" relative="1" as="geometry">
            <mxPoint x="1" y="-23" as="offset" />
          </mxGeometry>
        </mxCell>
        <mxCell id="DXTYkHTDWW93YnKTJZQN-75" value="RocketApproach" style="edgeLabel;html=1;align=center;verticalAlign=middle;resizable=0;points=[];fontFamily=Helvetica;fontSize=11;fontColor=default;labelBackgroundColor=default;" parent="DXTYkHTDWW93YnKTJZQN-73" vertex="1" connectable="0">
          <mxGeometry x="-0.5081" y="2" relative="1" as="geometry">
            <mxPoint x="2" y="-13" as="offset" />
          </mxGeometry>
        </mxCell>
        <mxCell id="DXTYkHTDWW93YnKTJZQN-83" style="edgeStyle=none;shape=connector;rounded=0;orthogonalLoop=1;jettySize=auto;html=1;exitX=0.5;exitY=0.07;exitDx=0;exitDy=0;entryX=0.5;entryY=0;entryDx=0;entryDy=0;strokeColor=default;align=center;verticalAlign=middle;fontFamily=Helvetica;fontSize=11;fontColor=default;labelBackgroundColor=default;endArrow=classic;exitPerimeter=0;" parent="1" source="DXTYkHTDWW93YnKTJZQN-76" target="DXTYkHTDWW93YnKTJZQN-6" edge="1">
          <mxGeometry relative="1" as="geometry" />
        </mxCell>
        <mxCell id="DXTYkHTDWW93YnKTJZQN-84" style="edgeStyle=none;shape=connector;rounded=0;orthogonalLoop=1;jettySize=auto;html=1;exitX=1.25;exitY=0.941;exitDx=0;exitDy=0;entryX=0.5;entryY=0;entryDx=0;entryDy=0;strokeColor=default;align=center;verticalAlign=middle;fontFamily=Helvetica;fontSize=11;fontColor=default;labelBackgroundColor=default;endArrow=classic;exitPerimeter=0;" parent="1" source="DXTYkHTDWW93YnKTJZQN-76" target="DXTYkHTDWW93YnKTJZQN-5" edge="1">
          <mxGeometry relative="1" as="geometry" />
        </mxCell>
        <mxCell id="DXTYkHTDWW93YnKTJZQN-76" value="" style="shape=rect;html=1;fillColor=strokeColor;verticalLabelPosition=bottom;verticalAlignment=top;fontFamily=Helvetica;fontSize=11;fontColor=default;labelBackgroundColor=default;rotation=90;" parent="1" vertex="1">
          <mxGeometry x="356" y="-267" width="4" height="659" as="geometry" />
        </mxCell>
        <mxCell id="DXTYkHTDWW93YnKTJZQN-85" value="" style="shape=ellipse;html=1;fillColor=strokeColor;strokeWidth=2;verticalLabelPosition=bottom;verticalAlignment=top;perimeter=ellipsePerimeter;fontFamily=Helvetica;fontSize=11;fontColor=default;labelBackgroundColor=default;" parent="1" vertex="1">
          <mxGeometry x="128" y="-39" width="40" height="40" as="geometry" />
        </mxCell>
        <mxCell id="DXTYkHTDWW93YnKTJZQN-86" style="edgeStyle=none;shape=connector;rounded=0;orthogonalLoop=1;jettySize=auto;html=1;exitX=0.5;exitY=1;exitDx=0;exitDy=0;entryX=1.625;entryY=0.819;entryDx=0;entryDy=0;entryPerimeter=0;strokeColor=default;align=center;verticalAlign=middle;fontFamily=Helvetica;fontSize=11;fontColor=default;labelBackgroundColor=default;endArrow=classic;" parent="1" source="DXTYkHTDWW93YnKTJZQN-85" target="DXTYkHTDWW93YnKTJZQN-76" edge="1">
          <mxGeometry relative="1" as="geometry" />
        </mxCell>
        <mxCell id="-JHDISajsUaX6GxstRCY-1" value="Notes" parent="0" />
        <mxCell id="-JHDISajsUaX6GxstRCY-2" value="&lt;font style=&quot;font-size: 14px;&quot;&gt;Interruptible Region: Daily job&lt;/font&gt;" style="shape=rect;html=1;rounded=1;verticalAlign=top;dashed=1;strokeWidth=2;whiteSpace=wrap;align=center;fontFamily=Helvetica;fontSize=11;fontColor=default;labelBackgroundColor=default;" parent="-JHDISajsUaX6GxstRCY-1" vertex="1">
          <mxGeometry x="-39" y="17" width="773" height="576" as="geometry" />
        </mxCell>
        <mxCell id="-JHDISajsUaX6GxstRCY-3" style="rounded=0;orthogonalLoop=1;jettySize=auto;html=1;exitX=0.5;exitY=1;exitDx=0;exitDy=0;" parent="-JHDISajsUaX6GxstRCY-1" source="-JHDISajsUaX6GxstRCY-26" target="-JHDISajsUaX6GxstRCY-7" edge="1">
          <mxGeometry relative="1" as="geometry" />
        </mxCell>
        <mxCell id="-JHDISajsUaX6GxstRCY-4" value="Prepre at base site" style="shape=rect;html=1;rounded=1;whiteSpace=wrap;align=center;" parent="-JHDISajsUaX6GxstRCY-1" vertex="1">
          <mxGeometry x="-3" y="131" width="138" height="53" as="geometry" />
        </mxCell>
        <mxCell id="-JHDISajsUaX6GxstRCY-5" value="Monitor health" style="shape=rect;html=1;rounded=1;whiteSpace=wrap;align=center;" parent="-JHDISajsUaX6GxstRCY-1" vertex="1">
          <mxGeometry x="586" y="149" width="112" height="176" as="geometry" />
        </mxCell>
        <mxCell id="-JHDISajsUaX6GxstRCY-6" style="rounded=0;orthogonalLoop=1;jettySize=auto;html=1;exitX=0.5;exitY=1;exitDx=0;exitDy=0;entryX=0.5;entryY=0;entryDx=0;entryDy=0;" parent="-JHDISajsUaX6GxstRCY-1" source="-JHDISajsUaX6GxstRCY-21" target="-JHDISajsUaX6GxstRCY-13" edge="1">
          <mxGeometry relative="1" as="geometry" />
        </mxCell>
        <mxCell id="-JHDISajsUaX6GxstRCY-7" value="transit: to job site" style="shape=rect;html=1;rounded=1;whiteSpace=wrap;align=center;" parent="-JHDISajsUaX6GxstRCY-1" vertex="1">
          <mxGeometry x="-3" y="268" width="138" height="53" as="geometry" />
        </mxCell>
        <mxCell id="-JHDISajsUaX6GxstRCY-8" style="edgeStyle=none;shape=connector;rounded=0;orthogonalLoop=1;jettySize=auto;html=1;exitX=1;exitY=0.5;exitDx=0;exitDy=0;entryX=0;entryY=0.5;entryDx=0;entryDy=0;strokeColor=default;align=center;verticalAlign=middle;fontFamily=Helvetica;fontSize=11;fontColor=default;labelBackgroundColor=default;endArrow=classic;" parent="-JHDISajsUaX6GxstRCY-1" source="-JHDISajsUaX6GxstRCY-9" target="-JHDISajsUaX6GxstRCY-15" edge="1">
          <mxGeometry relative="1" as="geometry" />
        </mxCell>
        <mxCell id="-JHDISajsUaX6GxstRCY-9" value="transit: to dump site" style="shape=rect;html=1;rounded=1;whiteSpace=wrap;align=center;" parent="-JHDISajsUaX6GxstRCY-1" vertex="1">
          <mxGeometry x="234" y="478" width="138" height="53" as="geometry" />
        </mxCell>
        <mxCell id="-JHDISajsUaX6GxstRCY-10" style="edgeStyle=orthogonalEdgeStyle;shape=connector;rounded=0;orthogonalLoop=1;jettySize=auto;html=1;exitX=0.5;exitY=0;exitDx=0;exitDy=0;entryX=1;entryY=0.5;entryDx=0;entryDy=0;strokeColor=default;align=center;verticalAlign=middle;fontFamily=Helvetica;fontSize=11;fontColor=default;labelBackgroundColor=default;endArrow=classic;" parent="-JHDISajsUaX6GxstRCY-1" source="-JHDISajsUaX6GxstRCY-11" target="-JHDISajsUaX6GxstRCY-4" edge="1">
          <mxGeometry relative="1" as="geometry" />
        </mxCell>
        <mxCell id="-JHDISajsUaX6GxstRCY-11" value="transit: to base" style="shape=rect;html=1;rounded=1;whiteSpace=wrap;align=center;" parent="-JHDISajsUaX6GxstRCY-1" vertex="1">
          <mxGeometry x="423" y="242" width="138" height="53" as="geometry" />
        </mxCell>
        <mxCell id="-JHDISajsUaX6GxstRCY-12" style="edgeStyle=none;shape=connector;rounded=0;orthogonalLoop=1;jettySize=auto;html=1;exitX=1;exitY=0.5;exitDx=0;exitDy=0;entryX=0;entryY=0.5;entryDx=0;entryDy=0;strokeColor=default;align=center;verticalAlign=middle;fontFamily=Helvetica;fontSize=11;fontColor=default;labelBackgroundColor=default;endArrow=classic;" parent="-JHDISajsUaX6GxstRCY-1" source="-JHDISajsUaX6GxstRCY-13" target="-JHDISajsUaX6GxstRCY-18" edge="1">
          <mxGeometry relative="1" as="geometry" />
        </mxCell>
        <mxCell id="-JHDISajsUaX6GxstRCY-13" value="Operate at job site" style="shape=rect;html=1;rounded=1;whiteSpace=wrap;align=center;" parent="-JHDISajsUaX6GxstRCY-1" vertex="1">
          <mxGeometry x="-3" y="478" width="138" height="53" as="geometry" />
        </mxCell>
        <mxCell id="-JHDISajsUaX6GxstRCY-14" style="edgeStyle=none;shape=connector;rounded=0;orthogonalLoop=1;jettySize=auto;html=1;exitX=0.5;exitY=0;exitDx=0;exitDy=0;entryX=0.5;entryY=1;entryDx=0;entryDy=0;strokeColor=default;align=center;verticalAlign=middle;fontFamily=Helvetica;fontSize=11;fontColor=default;labelBackgroundColor=default;endArrow=classic;" parent="-JHDISajsUaX6GxstRCY-1" source="-JHDISajsUaX6GxstRCY-15" target="-JHDISajsUaX6GxstRCY-23" edge="1">
          <mxGeometry relative="1" as="geometry" />
        </mxCell>
        <mxCell id="-JHDISajsUaX6GxstRCY-15" value="Operate at dump site" style="shape=rect;html=1;rounded=1;whiteSpace=wrap;align=center;" parent="-JHDISajsUaX6GxstRCY-1" vertex="1">
          <mxGeometry x="423" y="478" width="138" height="53" as="geometry" />
        </mxCell>
        <mxCell id="-JHDISajsUaX6GxstRCY-16" style="edgeStyle=orthogonalEdgeStyle;shape=connector;rounded=0;orthogonalLoop=1;jettySize=auto;html=1;exitX=0.5;exitY=0;exitDx=0;exitDy=0;entryX=1;entryY=0.5;entryDx=0;entryDy=0;strokeColor=default;align=center;verticalAlign=middle;fontFamily=Helvetica;fontSize=11;fontColor=default;labelBackgroundColor=default;endArrow=classic;" parent="-JHDISajsUaX6GxstRCY-1" source="-JHDISajsUaX6GxstRCY-18" target="-JHDISajsUaX6GxstRCY-21" edge="1">
          <mxGeometry relative="1" as="geometry" />
        </mxCell>
        <mxCell id="-JHDISajsUaX6GxstRCY-17" value="No" style="edgeLabel;html=1;align=center;verticalAlign=middle;resizable=0;points=[];fontFamily=Helvetica;fontSize=11;fontColor=default;labelBackgroundColor=default;" parent="-JHDISajsUaX6GxstRCY-16" vertex="1" connectable="0">
          <mxGeometry x="-0.289" relative="1" as="geometry">
            <mxPoint as="offset" />
          </mxGeometry>
        </mxCell>
        <mxCell id="-JHDISajsUaX6GxstRCY-18" value="" style="shape=rhombus;html=1;verticalLabelPosition=bottom;verticalAlignment=top;fontFamily=Helvetica;fontSize=11;fontColor=default;labelBackgroundColor=default;" parent="-JHDISajsUaX6GxstRCY-1" vertex="1">
          <mxGeometry x="159" y="484.5" width="40" height="40" as="geometry" />
        </mxCell>
        <mxCell id="-JHDISajsUaX6GxstRCY-19" value="Yes" style="edgeStyle=elbowEdgeStyle;html=1;elbow=vertical;verticalAlign=bottom;endArrow=open;rounded=0;labelBackgroundColor=none;endSize=12;strokeColor=default;align=center;fontFamily=Helvetica;fontSize=11;fontColor=default;entryX=0;entryY=0.5;entryDx=0;entryDy=0;" parent="-JHDISajsUaX6GxstRCY-1" source="-JHDISajsUaX6GxstRCY-18" target="-JHDISajsUaX6GxstRCY-9" edge="1">
          <mxGeometry relative="1" as="geometry">
            <mxPoint x="243" y="477" as="targetPoint" />
            <mxPoint x="115" y="477" as="sourcePoint" />
          </mxGeometry>
        </mxCell>
        <mxCell id="-JHDISajsUaX6GxstRCY-20" value="" style="rounded=0;orthogonalLoop=1;jettySize=auto;html=1;exitX=0.5;exitY=1;exitDx=0;exitDy=0;entryX=0.5;entryY=0;entryDx=0;entryDy=0;" parent="-JHDISajsUaX6GxstRCY-1" source="-JHDISajsUaX6GxstRCY-7" target="-JHDISajsUaX6GxstRCY-21" edge="1">
          <mxGeometry relative="1" as="geometry">
            <mxPoint x="66" y="298" as="sourcePoint" />
            <mxPoint x="20" y="452" as="targetPoint" />
          </mxGeometry>
        </mxCell>
        <mxCell id="-JHDISajsUaX6GxstRCY-21" value="" style="shape=rhombus;html=1;verticalLabelPosition=bottom;verticalAlignment=top;fontFamily=Helvetica;fontSize=11;fontColor=default;labelBackgroundColor=default;" parent="-JHDISajsUaX6GxstRCY-1" vertex="1">
          <mxGeometry x="46" y="373" width="40" height="40" as="geometry" />
        </mxCell>
        <mxCell id="-JHDISajsUaX6GxstRCY-22" style="edgeStyle=orthogonalEdgeStyle;shape=connector;rounded=0;orthogonalLoop=1;jettySize=auto;html=1;exitX=0;exitY=0.5;exitDx=0;exitDy=0;entryX=1;entryY=0.5;entryDx=0;entryDy=0;strokeColor=default;align=center;verticalAlign=middle;fontFamily=Helvetica;fontSize=11;fontColor=default;labelBackgroundColor=default;endArrow=classic;" parent="-JHDISajsUaX6GxstRCY-1" source="-JHDISajsUaX6GxstRCY-23" target="-JHDISajsUaX6GxstRCY-26" edge="1">
          <mxGeometry relative="1" as="geometry" />
        </mxCell>
        <mxCell id="-JHDISajsUaX6GxstRCY-23" value="" style="shape=rhombus;html=1;verticalLabelPosition=bottom;verticalAlignment=top;fontFamily=Helvetica;fontSize=11;fontColor=default;labelBackgroundColor=default;" parent="-JHDISajsUaX6GxstRCY-1" vertex="1">
          <mxGeometry x="472" y="365" width="40" height="40" as="geometry" />
        </mxCell>
        <mxCell id="-JHDISajsUaX6GxstRCY-24" style="edgeStyle=none;shape=connector;rounded=0;orthogonalLoop=1;jettySize=auto;html=1;exitX=0.5;exitY=0;exitDx=0;exitDy=0;entryX=0.5;entryY=1;entryDx=0;entryDy=0;strokeColor=default;align=center;verticalAlign=middle;fontFamily=Helvetica;fontSize=11;fontColor=default;labelBackgroundColor=default;endArrow=classic;" parent="-JHDISajsUaX6GxstRCY-1" source="-JHDISajsUaX6GxstRCY-23" target="-JHDISajsUaX6GxstRCY-11" edge="1">
          <mxGeometry relative="1" as="geometry" />
        </mxCell>
        <mxCell id="-JHDISajsUaX6GxstRCY-25" value="" style="rounded=0;orthogonalLoop=1;jettySize=auto;html=1;exitX=0.5;exitY=1;exitDx=0;exitDy=0;" parent="-JHDISajsUaX6GxstRCY-1" source="-JHDISajsUaX6GxstRCY-4" target="-JHDISajsUaX6GxstRCY-26" edge="1">
          <mxGeometry relative="1" as="geometry">
            <mxPoint x="66" y="184" as="sourcePoint" />
            <mxPoint x="65" y="268" as="targetPoint" />
          </mxGeometry>
        </mxCell>
        <mxCell id="-JHDISajsUaX6GxstRCY-26" value="" style="shape=rhombus;html=1;verticalLabelPosition=bottom;verticalAlignment=top;fontFamily=Helvetica;fontSize=11;fontColor=default;labelBackgroundColor=default;" parent="-JHDISajsUaX6GxstRCY-1" vertex="1">
          <mxGeometry x="46" y="205" width="40" height="40" as="geometry" />
        </mxCell>
        <mxCell id="-JHDISajsUaX6GxstRCY-27" value="Event: Rocket Landing Alert" style="html=1;shape=mxgraph.sysml.accEvent;strokeWidth=2;whiteSpace=wrap;align=center;fontFamily=Helvetica;fontSize=11;fontColor=default;labelBackgroundColor=default;" parent="-JHDISajsUaX6GxstRCY-1" vertex="1">
          <mxGeometry x="597" y="491" width="100" height="60" as="geometry" />
        </mxCell>
        <mxCell id="-JHDISajsUaX6GxstRCY-28" value="Operate in Emergency" style="shape=rect;html=1;rounded=1;whiteSpace=wrap;align=center;" parent="-JHDISajsUaX6GxstRCY-1" vertex="1">
          <mxGeometry x="939" y="507" width="138" height="53" as="geometry" />
        </mxCell>
        <mxCell id="-JHDISajsUaX6GxstRCY-29" value="Support Robot" style="shape=rect;html=1;rounded=1;whiteSpace=wrap;align=center;" parent="-JHDISajsUaX6GxstRCY-1" vertex="1">
          <mxGeometry x="938" y="279" width="138" height="53" as="geometry" />
        </mxCell>
        <mxCell id="-JHDISajsUaX6GxstRCY-30" value="Transit to recharge" style="shape=rect;html=1;rounded=1;whiteSpace=wrap;align=center;" parent="-JHDISajsUaX6GxstRCY-1" vertex="1">
          <mxGeometry x="940" y="163" width="138" height="53" as="geometry" />
        </mxCell>
        <mxCell id="-JHDISajsUaX6GxstRCY-31" value="" style="rounded=0;whiteSpace=wrap;html=1;fontFamily=Helvetica;fontSize=11;fontColor=default;labelBackgroundColor=default;" parent="-JHDISajsUaX6GxstRCY-1" vertex="1">
          <mxGeometry x="925" y="179" width="15" height="17" as="geometry" />
        </mxCell>
        <mxCell id="-JHDISajsUaX6GxstRCY-32" value="" style="rounded=0;whiteSpace=wrap;html=1;fontFamily=Helvetica;fontSize=11;fontColor=default;labelBackgroundColor=default;" parent="-JHDISajsUaX6GxstRCY-1" vertex="1">
          <mxGeometry x="693" y="166" width="15" height="17" as="geometry" />
        </mxCell>
        <mxCell id="-JHDISajsUaX6GxstRCY-33" value="" style="shape=mxgraph.lean_mapping.electronic_info_flow_edge;html=1;edgeStyle=none;align=center;verticalAlign=bottom;exitX=0;exitY=0.5;fillColor=#ffffff;rounded=0;strokeColor=default;fontFamily=Helvetica;fontSize=11;fontColor=default;labelBackgroundColor=default;endArrow=classic;exitDx=0;exitDy=0;entryX=1;entryY=0.5;entryDx=0;entryDy=0;" parent="-JHDISajsUaX6GxstRCY-1" source="-JHDISajsUaX6GxstRCY-32" target="-JHDISajsUaX6GxstRCY-31" edge="1">
          <mxGeometry x="1" relative="1" as="geometry">
            <mxPoint x="936" y="199" as="targetPoint" />
            <mxPoint x="723" y="201" as="sourcePoint" />
          </mxGeometry>
        </mxCell>
        <mxCell id="-JHDISajsUaX6GxstRCY-34" value="RechargeNeeded" style="edgeLabel;html=1;align=center;verticalAlign=middle;resizable=0;points=[];fontFamily=Helvetica;fontSize=11;fontColor=default;labelBackgroundColor=default;" parent="-JHDISajsUaX6GxstRCY-33" vertex="1" connectable="0">
          <mxGeometry x="0.6194" y="-3" relative="1" as="geometry">
            <mxPoint x="1" y="-23" as="offset" />
          </mxGeometry>
        </mxCell>
        <mxCell id="-JHDISajsUaX6GxstRCY-35" value="RechargeNeeded" style="edgeLabel;html=1;align=center;verticalAlign=middle;resizable=0;points=[];fontFamily=Helvetica;fontSize=11;fontColor=default;labelBackgroundColor=default;" parent="-JHDISajsUaX6GxstRCY-33" vertex="1" connectable="0">
          <mxGeometry x="-0.5081" y="2" relative="1" as="geometry">
            <mxPoint x="2" y="-13" as="offset" />
          </mxGeometry>
        </mxCell>
        <mxCell id="-JHDISajsUaX6GxstRCY-36" value="" style="rounded=0;whiteSpace=wrap;html=1;fontFamily=Helvetica;fontSize=11;fontColor=default;labelBackgroundColor=default;" parent="-JHDISajsUaX6GxstRCY-1" vertex="1">
          <mxGeometry x="923" y="298" width="15" height="17" as="geometry" />
        </mxCell>
        <mxCell id="-JHDISajsUaX6GxstRCY-37" value="" style="rounded=0;whiteSpace=wrap;html=1;fontFamily=Helvetica;fontSize=11;fontColor=default;labelBackgroundColor=default;" parent="-JHDISajsUaX6GxstRCY-1" vertex="1">
          <mxGeometry x="691" y="285" width="15" height="17" as="geometry" />
        </mxCell>
        <mxCell id="-JHDISajsUaX6GxstRCY-38" value="" style="shape=mxgraph.lean_mapping.electronic_info_flow_edge;html=1;edgeStyle=none;align=center;verticalAlign=bottom;exitX=0;exitY=0.5;fillColor=#ffffff;rounded=0;strokeColor=default;fontFamily=Helvetica;fontSize=11;fontColor=default;labelBackgroundColor=default;endArrow=classic;exitDx=0;exitDy=0;entryX=1;entryY=0.5;entryDx=0;entryDy=0;" parent="-JHDISajsUaX6GxstRCY-1" source="-JHDISajsUaX6GxstRCY-37" target="-JHDISajsUaX6GxstRCY-36" edge="1">
          <mxGeometry x="1" relative="1" as="geometry">
            <mxPoint x="934" y="318" as="targetPoint" />
            <mxPoint x="721" y="320" as="sourcePoint" />
          </mxGeometry>
        </mxCell>
        <mxCell id="-JHDISajsUaX6GxstRCY-39" value="MaintenaceNeeded" style="edgeLabel;html=1;align=center;verticalAlign=middle;resizable=0;points=[];fontFamily=Helvetica;fontSize=11;fontColor=default;labelBackgroundColor=default;" parent="-JHDISajsUaX6GxstRCY-38" vertex="1" connectable="0">
          <mxGeometry x="0.6194" y="-3" relative="1" as="geometry">
            <mxPoint x="1" y="-23" as="offset" />
          </mxGeometry>
        </mxCell>
        <mxCell id="-JHDISajsUaX6GxstRCY-40" value="MaintenaceNeeded" style="edgeLabel;html=1;align=center;verticalAlign=middle;resizable=0;points=[];fontFamily=Helvetica;fontSize=11;fontColor=default;labelBackgroundColor=default;" parent="-JHDISajsUaX6GxstRCY-38" vertex="1" connectable="0">
          <mxGeometry x="-0.5081" y="2" relative="1" as="geometry">
            <mxPoint x="2" y="-13" as="offset" />
          </mxGeometry>
        </mxCell>
        <mxCell id="-JHDISajsUaX6GxstRCY-41" value="" style="rounded=0;whiteSpace=wrap;html=1;fontFamily=Helvetica;fontSize=11;fontColor=default;labelBackgroundColor=default;" parent="-JHDISajsUaX6GxstRCY-1" vertex="1">
          <mxGeometry x="926" y="528" width="15" height="17" as="geometry" />
        </mxCell>
        <mxCell id="-JHDISajsUaX6GxstRCY-42" value="" style="rounded=0;whiteSpace=wrap;html=1;fontFamily=Helvetica;fontSize=11;fontColor=default;labelBackgroundColor=default;" parent="-JHDISajsUaX6GxstRCY-1" vertex="1">
          <mxGeometry x="694" y="515" width="15" height="17" as="geometry" />
        </mxCell>
        <mxCell id="-JHDISajsUaX6GxstRCY-43" value="" style="shape=mxgraph.lean_mapping.electronic_info_flow_edge;html=1;edgeStyle=none;align=center;verticalAlign=bottom;exitX=0;exitY=0.5;fillColor=#ffffff;rounded=0;strokeColor=default;fontFamily=Helvetica;fontSize=11;fontColor=default;labelBackgroundColor=default;endArrow=classic;exitDx=0;exitDy=0;entryX=1;entryY=0.5;entryDx=0;entryDy=0;" parent="-JHDISajsUaX6GxstRCY-1" source="-JHDISajsUaX6GxstRCY-42" target="-JHDISajsUaX6GxstRCY-41" edge="1">
          <mxGeometry x="1" relative="1" as="geometry">
            <mxPoint x="937" y="548" as="targetPoint" />
            <mxPoint x="724" y="550" as="sourcePoint" />
          </mxGeometry>
        </mxCell>
        <mxCell id="-JHDISajsUaX6GxstRCY-44" value="RocketApproach" style="edgeLabel;html=1;align=center;verticalAlign=middle;resizable=0;points=[];fontFamily=Helvetica;fontSize=11;fontColor=default;labelBackgroundColor=default;" parent="-JHDISajsUaX6GxstRCY-43" vertex="1" connectable="0">
          <mxGeometry x="0.6194" y="-3" relative="1" as="geometry">
            <mxPoint x="1" y="-23" as="offset" />
          </mxGeometry>
        </mxCell>
        <mxCell id="-JHDISajsUaX6GxstRCY-45" value="RocketApproach" style="edgeLabel;html=1;align=center;verticalAlign=middle;resizable=0;points=[];fontFamily=Helvetica;fontSize=11;fontColor=default;labelBackgroundColor=default;" parent="-JHDISajsUaX6GxstRCY-43" vertex="1" connectable="0">
          <mxGeometry x="-0.5081" y="2" relative="1" as="geometry">
            <mxPoint x="2" y="-13" as="offset" />
          </mxGeometry>
        </mxCell>
        <mxCell id="-JHDISajsUaX6GxstRCY-46" style="edgeStyle=none;shape=connector;rounded=0;orthogonalLoop=1;jettySize=auto;html=1;exitX=0.5;exitY=0.07;exitDx=0;exitDy=0;entryX=0.5;entryY=0;entryDx=0;entryDy=0;strokeColor=default;align=center;verticalAlign=middle;fontFamily=Helvetica;fontSize=11;fontColor=default;labelBackgroundColor=default;endArrow=classic;exitPerimeter=0;" parent="-JHDISajsUaX6GxstRCY-1" source="-JHDISajsUaX6GxstRCY-48" target="-JHDISajsUaX6GxstRCY-5" edge="1">
          <mxGeometry relative="1" as="geometry" />
        </mxCell>
        <mxCell id="-JHDISajsUaX6GxstRCY-47" style="edgeStyle=none;shape=connector;rounded=0;orthogonalLoop=1;jettySize=auto;html=1;exitX=1.25;exitY=0.941;exitDx=0;exitDy=0;entryX=0.5;entryY=0;entryDx=0;entryDy=0;strokeColor=default;align=center;verticalAlign=middle;fontFamily=Helvetica;fontSize=11;fontColor=default;labelBackgroundColor=default;endArrow=classic;exitPerimeter=0;" parent="-JHDISajsUaX6GxstRCY-1" source="-JHDISajsUaX6GxstRCY-48" target="-JHDISajsUaX6GxstRCY-4" edge="1">
          <mxGeometry relative="1" as="geometry" />
        </mxCell>
        <mxCell id="-JHDISajsUaX6GxstRCY-48" value="" style="shape=rect;html=1;fillColor=strokeColor;verticalLabelPosition=bottom;verticalAlignment=top;fontFamily=Helvetica;fontSize=11;fontColor=default;labelBackgroundColor=default;rotation=90;" parent="-JHDISajsUaX6GxstRCY-1" vertex="1">
          <mxGeometry x="356" y="-267" width="4" height="659" as="geometry" />
        </mxCell>
        <mxCell id="-JHDISajsUaX6GxstRCY-49" value="" style="shape=ellipse;html=1;fillColor=strokeColor;strokeWidth=2;verticalLabelPosition=bottom;verticalAlignment=top;perimeter=ellipsePerimeter;fontFamily=Helvetica;fontSize=11;fontColor=default;labelBackgroundColor=default;" parent="-JHDISajsUaX6GxstRCY-1" vertex="1">
          <mxGeometry x="128" y="-39" width="40" height="40" as="geometry" />
        </mxCell>
        <mxCell id="-JHDISajsUaX6GxstRCY-50" style="edgeStyle=none;shape=connector;rounded=0;orthogonalLoop=1;jettySize=auto;html=1;exitX=0.5;exitY=1;exitDx=0;exitDy=0;entryX=1.625;entryY=0.819;entryDx=0;entryDy=0;entryPerimeter=0;strokeColor=default;align=center;verticalAlign=middle;fontFamily=Helvetica;fontSize=11;fontColor=default;labelBackgroundColor=default;endArrow=classic;" parent="-JHDISajsUaX6GxstRCY-1" source="-JHDISajsUaX6GxstRCY-49" target="-JHDISajsUaX6GxstRCY-48" edge="1">
          <mxGeometry relative="1" as="geometry" />
        </mxCell>
        <mxCell id="-JHDISajsUaX6GxstRCY-60" style="rounded=0;orthogonalLoop=1;jettySize=auto;html=1;exitX=0.5;exitY=1;exitDx=0;exitDy=0;exitPerimeter=0;endArrow=none;endFill=0;dashed=1;" parent="-JHDISajsUaX6GxstRCY-1" source="-JHDISajsUaX6GxstRCY-61" edge="1">
          <mxGeometry relative="1" as="geometry">
            <mxPoint x="842.7142857142858" y="536.8571428571429" as="targetPoint" />
          </mxGeometry>
        </mxCell>
        <mxCell id="-JHDISajsUaX6GxstRCY-61" value="&lt;b&gt;Interruption&lt;/b&gt;&lt;div&gt;This line indicates that control flow is passed to another action/activty due to interruption&lt;/div&gt;" style="shape=note;whiteSpace=wrap;html=1;backgroundOutline=1;fontColor=#000000;darkOpacity=0.05;fillColor=#FFF9B2;strokeColor=none;fillStyle=solid;direction=west;gradientDirection=north;gradientColor=#FFF2A1;shadow=1;size=20;pointerEvents=1;align=left;verticalAlign=top;" parent="-JHDISajsUaX6GxstRCY-1" vertex="1">
          <mxGeometry x="731" y="589" width="203" height="100" as="geometry" />
        </mxCell>
        <mxCell id="-JHDISajsUaX6GxstRCY-62" style="edgeStyle=none;shape=connector;rounded=0;orthogonalLoop=1;jettySize=auto;html=1;exitX=0;exitY=0.5;exitDx=0;exitDy=0;exitPerimeter=0;entryX=0;entryY=0.5;entryDx=0;entryDy=0;dashed=1;strokeColor=default;align=center;verticalAlign=middle;fontFamily=Helvetica;fontSize=11;fontColor=default;labelBackgroundColor=default;endArrow=none;endFill=0;" parent="-JHDISajsUaX6GxstRCY-1" source="-JHDISajsUaX6GxstRCY-63" edge="1">
          <mxGeometry relative="1" as="geometry">
            <mxPoint x="46" y="225" as="targetPoint" />
          </mxGeometry>
        </mxCell>
        <mxCell id="-JHDISajsUaX6GxstRCY-63" value="&lt;b&gt;Merge Node&lt;/b&gt;&lt;div&gt;Diamond shape can also be a merge node, which has not [else] or [guard] path&lt;/div&gt;" style="shape=note;whiteSpace=wrap;html=1;backgroundOutline=1;fontColor=#000000;darkOpacity=0.05;fillColor=#FFF9B2;strokeColor=none;fillStyle=solid;direction=west;gradientDirection=north;gradientColor=#FFF2A1;shadow=1;size=20;pointerEvents=1;align=left;verticalAlign=top;" parent="-JHDISajsUaX6GxstRCY-1" vertex="1">
          <mxGeometry x="-277" y="229" width="203" height="84" as="geometry" />
        </mxCell>
        <mxCell id="-JHDISajsUaX6GxstRCY-64" value="&lt;b&gt;Interruptible Activity Region&lt;/b&gt;&lt;br&gt;&lt;div&gt;As the name suggest, activities in the region can be intrtupted by an event, and control will be passed to another action/activity&lt;/div&gt;" style="shape=note;whiteSpace=wrap;html=1;backgroundOutline=1;fontColor=#000000;darkOpacity=0.05;fillColor=#FFF9B2;strokeColor=none;fillStyle=solid;direction=west;gradientDirection=north;gradientColor=#FFF2A1;shadow=1;size=20;pointerEvents=1;align=left;verticalAlign=top;" parent="-JHDISajsUaX6GxstRCY-1" vertex="1">
          <mxGeometry x="482" y="-139" width="203" height="100" as="geometry" />
        </mxCell>
        <mxCell id="-JHDISajsUaX6GxstRCY-65" style="edgeStyle=none;shape=connector;rounded=0;orthogonalLoop=1;jettySize=auto;html=1;exitX=0.5;exitY=0;exitDx=0;exitDy=0;exitPerimeter=0;entryX=0.772;entryY=0.005;entryDx=0;entryDy=0;entryPerimeter=0;dashed=1;strokeColor=default;align=center;verticalAlign=middle;fontFamily=Helvetica;fontSize=11;fontColor=default;labelBackgroundColor=default;endArrow=none;endFill=0;" parent="-JHDISajsUaX6GxstRCY-1" source="-JHDISajsUaX6GxstRCY-64" edge="1">
          <mxGeometry relative="1" as="geometry">
            <mxPoint x="558" y="20" as="targetPoint" />
          </mxGeometry>
        </mxCell>
      </root>
    </mxGraphModel>
  </diagram>
</mxfile>
